    <svg version="1.1" id="Layer_1" xmlns="http://www.w3.org/2000/svg"
     xmlns:xlink="http://www.w3.org/1999/xlink" x="0px" y="0px" width="100%"
     viewBox="0 0 508 142" enable-background="new 0 0 508 142" xml:space="preserve">
<path fill="transparent" opacity="1.000000" stroke="none" d="
           M341.000000,143.000000
               C227.333359,143.000000 114.166710,143.000000 1.000046,143.000000
               C1.000030,95.666695 1.000030,48.333389 1.000015,1.000065
               C170.333267,1.000043 339.666534,1.000043 508.999878,1.000022
               C508.999908,48.333267 508.999908,95.666534 508.999939,142.999908
               C453.166656,143.000000 397.333344,143.000000 341.000000,143.000000
           M382.666290,9.895908
               C371.989319,-3.258371 353.343658,0.165003 346.809540,16.470015
               C338.646179,36.840454 330.434814,57.191727 322.311157,77.577972
               C317.386566,89.936195 312.062866,102.170387 307.878143,114.778816
               C303.469360,128.062469 312.428101,141.671448 325.539612,141.834778
               C353.009155,142.176926 380.486969,142.058350 407.959137,141.840942
               C415.132904,141.784180 420.543671,137.998947 423.848175,131.487381
               C427.733856,123.830612 426.252350,116.294815 423.256165,108.836525
               C414.264374,86.453552 405.276245,64.068878 396.196533,41.721500
               C391.946350,31.260696 387.488892,20.884111 382.666290,9.895908
           M481.446045,13.999533
               C466.688873,13.999533 451.931702,13.999533 437.334656,13.999533
               C437.334656,52.710827 437.334656,90.778755 437.334656,129.000183
               C454.990540,129.000183 472.311859,129.036148 489.632843,128.972855
               C493.564575,128.958496 507.859314,114.257484 507.996979,110.310478
               C508.020203,109.644646 508.000366,108.977310 508.000366,108.310669
               C508.000366,100.977623 507.801117,93.637375 508.065735,86.313889
               C508.264618,80.809830 508.299408,75.612862 501.285828,72.163727
               C509.904175,68.158363 507.878387,61.180752 507.989990,54.857666
               C508.048798,51.525501 507.554993,48.119068 508.082672,44.871609
               C509.768677,34.495766 505.781189,27.055130 497.995819,20.279108
               C493.208618,16.112595 489.004547,12.716598 481.446045,13.999533
           M48.999825,112.498360
               C48.999825,117.927902 48.999825,123.357445 48.999825,128.685303
               C56.342216,128.685303 63.078808,128.685303 69.679108,128.685303
               C69.679108,90.307068 69.679108,52.244457 69.679108,14.334803
               C62.616112,14.334803 55.878567,14.334803 48.731369,14.334803
               C48.731369,30.071110 48.731369,45.475052 48.731369,60.658550
               C40.223652,60.658550 32.144043,60.658550 23.642281,60.658550
               C23.642281,44.915092 23.642281,29.510490 23.642281,14.225996
               C16.258299,14.225996 9.312669,14.225996 2.232234,14.225996
               C2.232234,52.514538 2.232234,90.576607 2.232234,128.714630
               C9.527795,128.714630 16.587746,128.714630 24.090443,128.714630
               C24.090443,113.370186 24.090443,98.305534 24.090443,83.289169
               C32.613590,83.289169 40.685799,83.289169 48.999825,83.289169
               C48.999825,92.883820 48.999825,102.191284 48.999825,112.498360
           M152.002991,109.148430
               C152.002991,77.554337 152.002991,45.960251 152.002991,14.380352
               C144.512238,14.380352 137.483337,14.380352 130.144379,14.380352
               C130.144379,45.683891 130.144379,76.605568 130.144379,107.692749
               C120.944817,107.692749 112.071426,107.692749 102.784958,107.692749
               C102.784958,76.334793 102.784958,45.279129 102.784958,14.319357
               C95.299294,14.319357 88.233826,14.319357 80.997284,14.319357
               C80.997284,46.605740 80.976089,78.570107 81.024963,110.534370
               C81.030861,114.392509 95.789711,128.838959 99.640549,129.001907
               C99.806808,129.008957 99.973633,129.002960 100.140190,129.002960
               C111.133118,129.002975 122.126945,129.071976 133.117996,128.928024
               C134.753128,128.906616 136.767624,128.311661 137.933044,127.245651
               C142.228378,123.316719 146.358978,119.186203 150.281158,114.884964
               C151.344086,113.719315 151.455063,111.685638 152.002991,109.148430
           M171.839401,91.333183
               C164.298828,102.797318 160.523697,115.078796 163.642548,128.651993
               C185.424133,128.651993 207.155075,128.651993 228.646591,128.651993
               C228.646591,121.561356 228.646591,114.823746 228.646591,107.784058
               C216.209305,107.784058 204.133560,107.784058 191.461136,107.784058
               C192.374161,105.841789 193.008072,104.364487 193.746658,102.941513
               C204.306274,82.596581 214.490143,62.042229 225.623123,42.015640
               C230.799408,32.704285 228.052231,23.434761 229.020569,14.374990
               C206.529648,14.374990 184.799759,14.374990 163.209167,14.374990
               C163.209167,21.702337 163.209167,28.652189 163.209167,36.154037
               C175.574417,36.154037 187.741165,36.154037 200.547256,36.154037
               C190.820084,54.787273 181.462875,72.711784 171.839401,91.333183
           M278.500641,108.000671
               C272.740356,108.000671 266.980072,108.000671 260.828064,108.000671
               C260.828064,76.354492 260.828064,45.301262 260.828064,14.297853
               C253.355759,14.297853 246.289505,14.297853 239.282089,14.297853
               C239.282089,52.642918 239.282089,90.690147 239.282089,128.717819
               C258.622894,128.717819 277.680908,128.717819 296.707458,128.717819
               C296.707458,121.700050 296.707458,114.968224 296.707458,108.000671
               C290.778107,108.000671 285.138763,108.000671 278.500641,108.000671
           z" />
<path fill="#F09362" opacity="1.000000" stroke="none" d="
           M382.895813,10.182632
               C387.488892,20.884111 391.946350,31.260696 396.196533,41.721500
               C405.276245,64.068878 414.264374,86.453552 423.256165,108.836525
               C426.252350,116.294815 427.733856,123.830612 423.848175,131.487381
               C420.543671,137.998947 415.132904,141.784180 407.959137,141.840942
               C380.486969,142.058350 353.009155,142.176926 325.539612,141.834778
               C312.428101,141.671448 303.469360,128.062469 307.878143,114.778816
               C312.062866,102.170387 317.386566,89.936195 322.311157,77.577972
               C330.434814,57.191727 338.646179,36.840454 346.809540,16.470015
               C353.343658,0.165003 371.989319,-3.258371 382.895813,10.182632
           M358.984344,83.555153
               C370.788025,77.715790 380.847473,69.747498 389.153900,59.471077
               C391.137329,57.017239 391.358032,55.092052 390.198822,52.292500
               C385.747284,41.541721 381.416595,30.738007 377.243042,19.876329
               C375.381348,15.031259 372.350616,12.018026 367.032196,11.798729
               C361.967072,11.589875 358.508667,14.144403 356.240906,19.725430
               C348.730499,38.209057 341.250610,56.705105 333.755859,75.195084
               C331.552032,80.631981 329.337585,86.064537 326.910095,92.035019
               C338.459198,91.249908 348.625000,88.513237 358.984344,83.555153
           z" />
<path fill="#1C232C" opacity="1.000000" stroke="none" d="
           M481.933868,13.999533
               C489.004547,12.716598 493.208618,16.112595 497.995819,20.279108
               C505.781189,27.055130 509.768677,34.495766 508.082672,44.871609
               C507.554993,48.119068 508.048798,51.525501 507.989990,54.857666
               C507.878387,61.180752 509.904175,68.158363 501.285828,72.163727
               C508.299408,75.612862 508.264618,80.809830 508.065735,86.313889
               C507.801117,93.637375 508.000366,100.977623 508.000366,108.310669
               C508.000366,108.977310 508.020203,109.644646 507.996979,110.310478
               C507.859314,114.257484 493.564575,128.958496 489.632843,128.972855
               C472.311859,129.036148 454.990540,129.000183 437.334656,129.000183
               C437.334656,90.778755 437.334656,52.710827 437.334656,13.999533
               C451.931702,13.999533 466.688873,13.999533 481.933868,13.999533
           M458.001099,42.579842
               C458.001099,48.665443 458.001099,54.751045 458.001099,60.676487
               C468.040344,60.676487 477.433960,60.676487 486.673401,60.676487
               C486.673401,52.288719 486.673401,44.226551 486.673401,36.328125
               C476.951935,36.328125 467.558716,36.328125 458.001099,36.328125
               C458.001099,38.304287 458.001099,39.954292 458.001099,42.579842
           M486.998901,101.420166
               C486.998901,95.334557 486.998901,89.248947 486.998901,83.323517
               C476.959656,83.323517 467.566040,83.323517 458.326599,83.323517
               C458.326599,91.711441 458.326599,99.773399 458.326599,107.671883
               C468.048187,107.671883 477.441223,107.671883 486.998901,107.671883
               C486.998901,105.695717 486.998901,104.045708 486.998901,101.420166
           z" />
<path fill="#1B222C" opacity="1.000000" stroke="none" d="
           M48.999825,111.998550
               C48.999825,102.191284 48.999825,92.883820 48.999825,83.289169
               C40.685799,83.289169 32.613590,83.289169 24.090443,83.289169
               C24.090443,98.305534 24.090443,113.370186 24.090443,128.714630
               C16.587746,128.714630 9.527795,128.714630 2.232234,128.714630
               C2.232234,90.576607 2.232234,52.514538 2.232234,14.225996
               C9.312669,14.225996 16.258299,14.225996 23.642281,14.225996
               C23.642281,29.510490 23.642281,44.915092 23.642281,60.658550
               C32.144043,60.658550 40.223652,60.658550 48.731369,60.658550
               C48.731369,45.475052 48.731369,30.071110 48.731369,14.334803
               C55.878567,14.334803 62.616112,14.334803 69.679108,14.334803
               C69.679108,52.244457 69.679108,90.307068 69.679108,128.685303
               C63.078808,128.685303 56.342216,128.685303 48.999825,128.685303
               C48.999825,123.357445 48.999825,117.927902 48.999825,111.998550
           z" />
<path fill="#1D242E" opacity="1.000000" stroke="none" d="
           M152.002991,109.599396
               C151.455063,111.685638 151.344086,113.719315 150.281158,114.884964
               C146.358978,119.186203 142.228378,123.316719 137.933044,127.245651
               C136.767624,128.311661 134.753128,128.906616 133.117996,128.928024
               C122.126945,129.071976 111.133118,129.002975 100.140190,129.002960
               C99.973633,129.002960 99.806808,129.008957 99.640549,129.001907
               C95.789711,128.838959 81.030861,114.392509 81.024963,110.534370
               C80.976089,78.570107 80.997284,46.605740 80.997284,14.319357
               C88.233826,14.319357 95.299294,14.319357 102.784958,14.319357
               C102.784958,45.279129 102.784958,76.334793 102.784958,107.692749
               C112.071426,107.692749 120.944817,107.692749 130.144379,107.692749
               C130.144379,76.605568 130.144379,45.683891 130.144379,14.380352
               C137.483337,14.380352 144.512238,14.380352 152.002991,14.380352
               C152.002991,45.960251 152.002991,77.554337 152.002991,109.599396
           z" />
<path fill="#1C232D" opacity="1.000000" stroke="none" d="
           M171.972534,90.984741
               C181.462875,72.711784 190.820084,54.787273 200.547256,36.154037
               C187.741165,36.154037 175.574417,36.154037 163.209167,36.154037
               C163.209167,28.652189 163.209167,21.702337 163.209167,14.374990
               C184.799759,14.374990 206.529648,14.374990 229.020569,14.374990
               C228.052231,23.434761 230.799408,32.704285 225.623123,42.015640
               C214.490143,62.042229 204.306274,82.596581 193.746658,102.941513
               C193.008072,104.364487 192.374161,105.841789 191.461136,107.784058
               C204.133560,107.784058 216.209305,107.784058 228.646591,107.784058
               C228.646591,114.823746 228.646591,121.561356 228.646591,128.651993
               C207.155075,128.651993 185.424133,128.651993 163.642548,128.651993
               C160.523697,115.078796 164.298828,102.797318 171.972534,90.984741
           z" />
<path fill="#1B222C" opacity="1.000000" stroke="none" d="
           M279.000000,108.000671
               C285.138763,108.000671 290.778107,108.000671 296.707458,108.000671
               C296.707458,114.968224 296.707458,121.700050 296.707458,128.717819
               C277.680908,128.717819 258.622894,128.717819 239.282089,128.717819
               C239.282089,90.690147 239.282089,52.642918 239.282089,14.297853
               C246.289505,14.297853 253.355759,14.297853 260.828064,14.297853
               C260.828064,45.301262 260.828064,76.354492 260.828064,108.000671
               C266.980072,108.000671 272.740356,108.000671 279.000000,108.000671
           z" />
<path fill="transparent" opacity="1.000000" stroke="none" d="
           M358.645691,83.720993
               C348.625000,88.513237 338.459198,91.249908 326.910095,92.035019
               C329.337585,86.064537 331.552032,80.631981 333.755859,75.195084
               C341.250610,56.705105 348.730499,38.209057 356.240906,19.725430
               C358.508667,14.144403 361.967072,11.589875 367.032196,11.798729
               C372.350616,12.018026 375.381348,15.031259 377.243042,19.876329
               C381.416595,30.738007 385.747284,41.541721 390.198822,52.292500
               C391.358032,55.092052 391.137329,57.017239 389.153900,59.471077
               C380.847473,69.747498 370.788025,77.715790 358.645691,83.720993
           z" />
<path fill="transparent" opacity="1.000000" stroke="none" d="
           M458.001099,42.092072
               C458.001099,39.954292 458.001099,38.304287 458.001099,36.328125
               C467.558716,36.328125 476.951935,36.328125 486.673401,36.328125
               C486.673401,44.226551 486.673401,52.288719 486.673401,60.676487
               C477.433960,60.676487 468.040344,60.676487 458.001099,60.676487
               C458.001099,54.751045 458.001099,48.665443 458.001099,42.092072
           z" />
<path fill="transparent" opacity="1.000000" stroke="none" d="
           M486.998901,101.907936
               C486.998901,104.045708 486.998901,105.695717 486.998901,107.671883
               C477.441223,107.671883 468.048187,107.671883 458.326599,107.671883
               C458.326599,99.773399 458.326599,91.711441 458.326599,83.323517
               C467.566040,83.323517 476.959656,83.323517 486.998901,83.323517
               C486.998901,89.248947 486.998901,95.334557 486.998901,101.907936
           z" />
                        </svg>