<svg width="32" height="32" viewBox="0 0 32 32" fill="none" xmlns="http://www.w3.org/2000/svg">
<path d="M31 22.5651C31 25.0095 28.9095 27 26.3423 27H1V9.43492C1 6.99048 3.09046 5 5.6577 5H31V22.5651Z" fill="white"/>
<path d="M24.4535 6.48425C22.6198 6.48425 21.1161 7.89854 21.1161 9.66203V12.962H25.8288C25.9389 12.962 26.0672 12.962 26.1589 12.9795C27.2225 13.0319 28.011 13.5557 28.011 14.4636C28.011 15.1795 27.4792 15.7906 26.489 15.9128V15.9477C27.5709 16.0176 28.3961 16.5938 28.3961 17.4843C28.3961 18.4446 27.4792 19.0731 26.2689 19.0731H21.0978V25.5335H25.9939C27.8276 25.5335 29.3313 24.1192 29.3313 22.3557V6.48425H24.4535Z" fill="url(#paint0_linear_510_10248)"/>
<path d="M22.7482 18.0604H24.6736C24.7011 18.0604 24.7469 18.0561 24.7928 18.0517C24.8386 18.0473 24.8845 18.043 24.912 18.043C25.2787 17.9731 25.5905 17.6589 25.5905 17.2223C25.5905 16.8033 25.2787 16.489 24.912 16.4017C24.857 16.3842 24.7469 16.3842 24.6736 16.3842H22.7482V18.0604Z" fill="url(#paint1_linear_510_10248)"/>
<path d="M24.6736 13.9223C25.0403 13.9746 25.3521 14.254 25.3521 14.673C25.3521 15.0921 25.0403 15.3715 24.6736 15.4238C24.6553 15.4413 24.5452 15.4413 24.4902 15.4413H22.7482V13.9048H24.4902C24.5205 13.9048 24.5619 13.9101 24.5991 13.9148C24.6295 13.9187 24.6571 13.9223 24.6736 13.9223Z" fill="url(#paint2_linear_510_10248)"/>
<path d="M6.00614 6.48425C4.1724 6.48425 2.66873 7.89854 2.66873 9.66203V17.5017C3.60394 17.9382 4.57582 18.2176 5.5477 18.2176C6.70296 18.2176 7.32643 17.5541 7.32643 16.6462V12.9446H10.1871V16.6287C10.1871 18.0604 9.25186 19.2303 6.07949 19.2303C4.15406 19.2303 2.65039 18.8287 2.65039 18.8287V25.516H7.54648C9.38022 25.516 10.8839 24.1017 10.8839 22.3382V6.48425H6.00614Z" fill="url(#paint3_linear_510_10248)"/>
<path d="M15.2299 6.48425C13.3961 6.48425 11.8925 7.89854 11.8925 9.66203V13.8176C12.736 13.1366 14.203 12.7001 16.5685 12.8049C17.8338 12.8573 19.1907 13.189 19.1907 13.189V14.5335C18.5123 14.2017 17.7054 13.9049 16.6602 13.835C14.8631 13.7128 13.7812 14.5509 13.7812 16.0176C13.7812 17.5017 14.8631 18.3398 16.6602 18.2001C17.7054 18.1303 18.5123 17.816 19.1907 17.5017V18.8462C19.1907 18.8462 17.8521 19.1779 16.5685 19.2303C14.203 19.335 12.736 18.8985 11.8925 18.2176V25.5509H16.7885C18.6223 25.5509 20.126 24.1366 20.126 22.3731V6.48425H15.2299Z" fill="url(#paint4_linear_510_10248)"/>
<defs>
<linearGradient id="paint0_linear_510_10248" x1="21.1125" y1="14.6704" x2="29.3532" y2="14.6704" gradientUnits="userSpaceOnUse">
<stop stop-color="#007940"/>
<stop offset="0.2285" stop-color="#00873F"/>
<stop offset="0.7433" stop-color="#40A737"/>
<stop offset="1" stop-color="#5CB531"/>
</linearGradient>
<linearGradient id="paint1_linear_510_10248" x1="21.1125" y1="14.6704" x2="29.3532" y2="14.6704" gradientUnits="userSpaceOnUse">
<stop stop-color="#007940"/>
<stop offset="0.2285" stop-color="#00873F"/>
<stop offset="0.7433" stop-color="#40A737"/>
<stop offset="1" stop-color="#5CB531"/>
</linearGradient>
<linearGradient id="paint2_linear_510_10248" x1="21.1125" y1="14.6704" x2="29.3532" y2="14.6704" gradientUnits="userSpaceOnUse">
<stop stop-color="#007940"/>
<stop offset="0.2285" stop-color="#00873F"/>
<stop offset="0.7433" stop-color="#40A737"/>
<stop offset="1" stop-color="#5CB531"/>
</linearGradient>
<linearGradient id="paint3_linear_510_10248" x1="2.66456" y1="16.0009" x2="11.0327" y2="16.0009" gradientUnits="userSpaceOnUse">
<stop stop-color="#1F286F"/>
<stop offset="0.4751" stop-color="#004E94"/>
<stop offset="0.8261" stop-color="#0066B1"/>
<stop offset="1" stop-color="#006FBC"/>
</linearGradient>
<linearGradient id="paint4_linear_510_10248" x1="11.8448" y1="16.0009" x2="19.9719" y2="16.0009" gradientUnits="userSpaceOnUse">
<stop stop-color="#6C2C2F"/>
<stop offset="0.1735" stop-color="#882730"/>
<stop offset="0.5731" stop-color="#BE1833"/>
<stop offset="0.8585" stop-color="#DC0436"/>
<stop offset="1" stop-color="#E60039"/>
</linearGradient>
</defs>
</svg>
