<svg width="186" height="112" viewBox="0 0 186 112" fill="none" xmlns="http://www.w3.org/2000/svg">
<g filter="url(#filter0_d_510_10148)">
<path d="M66 27.9556C66 24.4708 66 22.7284 66.6782 21.3974C67.2747 20.2266 68.2266 19.2747 69.3974 18.6782C70.7284 18 72.4708 18 75.9556 18H84.0444C87.5292 18 89.2716 18 90.6026 18.6782C91.7734 19.2747 92.7253 20.2266 93.3218 21.3974C94 22.7284 94 24.4708 94 27.9556V36.0444C94 39.5292 94 41.2716 93.3218 42.6026C92.7253 43.7734 91.7734 44.7253 90.6026 45.3218C89.2716 46 87.5292 46 84.0444 46H75.9556C72.4708 46 70.7284 46 69.3974 45.3218C68.2266 44.7253 67.2747 43.7734 66.6782 42.6026C66 41.2716 66 39.5292 66 36.0444V27.9556Z" fill="white"/>
<path d="M86.0513 24.5229L80.0642 29.1954L73.9402 24.5229V24.5242L73.9476 24.5305V31.0732L79.9951 35.8466L86.0513 31.2575V24.5229Z" fill="#EA4335"/>
<path d="M87.6235 23.3864L86.0511 24.5229V31.2575L90.9987 27.459V25.1707C90.9987 25.1707 90.3981 21.9026 87.6235 23.3864Z" fill="#FBBC05"/>
<path d="M86.0511 31.2577V39.9926H89.8432C89.8432 39.9926 90.9222 39.8814 90.9999 38.6514V27.4591L86.0511 31.2577Z" fill="#34A853"/>
<path d="M73.9479 39.9999V31.0731L73.9402 31.0668L73.9479 39.9999Z" fill="#C5221F"/>
<path d="M73.9401 24.5243L72.3765 23.3941C69.6018 21.9103 69 25.1772 69 25.1772V27.4654L73.9401 31.0669V24.5243Z" fill="#C5221F"/>
<path d="M73.9402 24.5242V31.0668L73.9479 31.0731V24.5305L73.9402 24.5242Z" fill="#C5221F"/>
<path d="M69 27.4666V38.6589C69.0765 39.8901 70.1567 40 70.1567 40H73.9488L73.9401 31.0668L69 27.4666Z" fill="#4285F4"/>
</g>
<defs>
<filter id="filter0_d_510_10148" x="-28" y="-72" width="216" height="216" filterUnits="userSpaceOnUse" color-interpolation-filters="sRGB">
<feFlood flood-opacity="0" result="BackgroundImageFix"/>
<feColorMatrix in="SourceAlpha" type="matrix" values="0 0 0 0 0 0 0 0 0 0 0 0 0 0 0 0 0 0 127 0" result="hardAlpha"/>
<feMorphology radius="88" operator="dilate" in="SourceAlpha" result="effect1_dropShadow_510_10148"/>
<feOffset dy="4"/>
<feGaussianBlur stdDeviation="2"/>
<feComposite in2="hardAlpha" operator="out"/>
<feColorMatrix type="matrix" values="0 0 0 0 1 0 0 0 0 0 0 0 0 0 0 0 0 0 1 0"/>
<feBlend mode="normal" in2="BackgroundImageFix" result="effect1_dropShadow_510_10148"/>
<feBlend mode="normal" in="SourceGraphic" in2="effect1_dropShadow_510_10148" result="shape"/>
</filter>
</defs>
</svg>
