<svg width="212" height="64" viewBox="0 0 212 64" fill="none" xmlns="http://www.w3.org/2000/svg">
<g filter="url(#filter0_d_510_10091)">
<path d="M92 27.9556C92 24.4708 92 22.7284 92.6782 21.3974C93.2747 20.2266 94.2266 19.2747 95.3974 18.6782C96.7284 18 98.4708 18 101.956 18H110.044C113.529 18 115.272 18 116.603 18.6782C117.773 19.2747 118.725 20.2266 119.322 21.3974C120 22.7284 120 24.4708 120 27.9556V36.0444C120 39.5292 120 41.2716 119.322 42.6026C118.725 43.7734 117.773 44.7253 116.603 45.3218C115.272 46 113.529 46 110.044 46H101.956C98.4708 46 96.7284 46 95.3974 45.3218C94.2266 44.7253 93.2747 43.7734 92.6782 42.6026C92 41.2716 92 39.5292 92 36.0444V27.9556Z" fill="white"/>
<path d="M95 39.56C95 40.3556 95.65 41 96.4508 41H96.4717C95.6586 41 95 40.3556 95 39.56Z" fill="#FBBC05"/>
<path d="M107.468 28.4V32.1596L112.536 28.0712V24.44C112.536 23.6444 111.886 23 111.085 23H100.104L100.094 28.4H107.468Z" fill="#FBBC05"/>
<path d="M107.467 35.9207H100.082L100.074 41.0003H111.085C111.887 41.0003 112.536 40.3559 112.536 39.5603V36.2819L107.467 32.1611V35.9207Z" fill="#34A853"/>
<path d="M100.104 23L95 28.4H100.096L100.104 23Z" fill="#EA4335"/>
<path d="M95 35.9204V39.56C95 40.3556 95.6586 41 96.4717 41H100.074L100.082 35.9204H95Z" fill="#1967D2"/>
<path d="M100.096 28.4H95V35.9203H100.082L100.096 28.4Z" fill="#4285F4"/>
<path d="M116.993 38.2799V25.9199C116.707 24.2796 114.908 26.1599 114.908 26.1599L112.537 28.0715V36.2807L115.931 39.0395C117.156 39.2003 116.993 38.2799 116.993 38.2799Z" fill="#34A853"/>
<path d="M107.467 32.1596L112.537 36.2815V28.0724L107.467 32.1596Z" fill="#188038"/>
</g>
<defs>
<filter id="filter0_d_510_10091" x="-2" y="-72" width="216" height="216" filterUnits="userSpaceOnUse" color-interpolation-filters="sRGB">
<feFlood flood-opacity="0" result="BackgroundImageFix"/>
<feColorMatrix in="SourceAlpha" type="matrix" values="0 0 0 0 0 0 0 0 0 0 0 0 0 0 0 0 0 0 127 0" result="hardAlpha"/>
<feMorphology radius="88" operator="dilate" in="SourceAlpha" result="effect1_dropShadow_510_10091"/>
<feOffset dy="4"/>
<feGaussianBlur stdDeviation="2"/>
<feComposite in2="hardAlpha" operator="out"/>
<feColorMatrix type="matrix" values="0 0 0 0 1 0 0 0 0 0 0 0 0 0 0 0 0 0 1 0"/>
<feBlend mode="normal" in2="BackgroundImageFix" result="effect1_dropShadow_510_10091"/>
<feBlend mode="normal" in="SourceGraphic" in2="effect1_dropShadow_510_10091" result="shape"/>
</filter>
</defs>
</svg>
