<svg width="80" height="30" viewBox="0 0 80 30" fill="none" xmlns="http://www.w3.org/2000/svg">
<path d="M26.2656 14.915V13.8247L28.7632 11.3594C29.1284 11.0085 29.4113 10.7202 29.6118 10.4946C29.8123 10.2655 29.952 10.0667 30.0308 9.89844C30.1095 9.72656 30.1489 9.54932 30.1489 9.3667V9.35059C30.1489 9.12858 30.1006 8.93343 30.0039 8.76514C29.9108 8.59684 29.7747 8.46615 29.5957 8.37305C29.4167 8.27637 29.2036 8.22803 28.9565 8.22803C28.7059 8.22803 28.4839 8.28174 28.2905 8.38916C28.0972 8.493 27.9468 8.63802 27.8394 8.82422C27.7319 9.00684 27.6782 9.22168 27.6782 9.46875V9.49561H26.1797L26.1743 9.46875C26.1743 8.97461 26.2943 8.53955 26.5342 8.16357C26.7777 7.7876 27.1125 7.49398 27.5386 7.28271C27.9683 7.07145 28.466 6.96582 29.0317 6.96582C29.5653 6.96582 30.0343 7.06071 30.439 7.25049C30.8472 7.44027 31.1659 7.70345 31.395 8.04004C31.6278 8.37663 31.7441 8.76872 31.7441 9.21631V9.23242C31.7441 9.52604 31.6868 9.81429 31.5723 10.0972C31.4577 10.3765 31.2643 10.679 30.9922 11.0049C30.7201 11.3307 30.3477 11.7121 29.875 12.1489L28.4409 13.4882V13.6099H31.8569V14.915H26.2656Z" fill="#A4A7B5"/>
<path d="M16.4816 15.2125C16.8958 15.2125 17.2316 15.5483 17.2316 15.9625V17.5239C17.2316 17.9381 16.8958 18.2739 16.4816 18.2739C16.0674 18.2739 15.7316 17.9381 15.7316 17.5239V15.9625C15.7316 15.5483 16.0674 15.2125 16.4816 15.2125Z" fill="#A4A7B5"/>
<path fill-rule="evenodd" clip-rule="evenodd" d="M20.027 9.83578C19.5335 8.31106 18.159 7.16579 16.4894 7.16507C14.3787 7.15702 12.7449 8.9646 12.7362 11.0959V12.0764C11.5416 12.5947 10.7314 13.8406 10.7314 15.2366V18.2497C10.7314 20.0874 12.1355 21.665 13.9721 21.665H18.9908C20.8274 21.665 22.2314 20.0874 22.2314 18.2497V15.2366C22.2314 13.3989 20.8274 11.8213 18.9908 11.8213H14.2362V11.1006C14.2426 9.70144 15.2954 8.66002 16.4846 8.66507H16.4878C17.4342 8.66507 18.283 9.31848 18.5999 10.2976C18.7274 10.6917 19.1503 10.9078 19.5444 10.7803C19.9385 10.6527 20.1545 10.2299 20.027 9.83578ZM12.2314 15.2366C12.2314 14.13 13.0579 13.3213 13.9721 13.3213H18.9908C19.905 13.3213 20.7314 14.13 20.7314 15.2366V18.2497C20.7314 19.3562 19.905 20.165 18.9908 20.165H13.9721C13.0579 20.165 12.2314 19.3562 12.2314 18.2497V15.2366Z" fill="#A4A7B5"/>
<path d="M34.9425 14.813C35.3579 15.0135 35.8413 15.1138 36.3927 15.1138C36.9728 15.1138 37.483 14.9992 37.9235 14.77C38.3675 14.5373 38.713 14.215 38.9601 13.8032C39.2107 13.3914 39.3361 12.9134 39.3361 12.3691V12.3584C39.3361 11.8643 39.2287 11.4274 39.0138 11.0479C38.8025 10.6647 38.5089 10.3639 38.1329 10.1455C37.7606 9.92708 37.3327 9.81787 36.8493 9.81787C36.6022 9.81787 36.3712 9.85189 36.1564 9.91992C35.9451 9.98796 35.7571 10.0846 35.5924 10.21C35.4313 10.3353 35.2988 10.4857 35.195 10.6611H35.0983L35.2916 8.45361H38.8742V7.16455H34.0294L33.6696 11.7515H35.0607C35.1037 11.6691 35.1556 11.5921 35.2164 11.5205C35.2809 11.4453 35.3489 11.3791 35.4205 11.3218C35.553 11.2108 35.7016 11.1284 35.8663 11.0747C36.0311 11.0174 36.2101 10.9888 36.4035 10.9888C36.6792 10.9888 36.9227 11.0479 37.1339 11.166C37.3452 11.2842 37.5099 11.4489 37.6281 11.6602C37.7498 11.8714 37.8107 12.1149 37.8107 12.3906V12.4014C37.8107 12.6771 37.7498 12.9224 37.6281 13.1372C37.5099 13.3485 37.3452 13.515 37.1339 13.6367C36.9227 13.7585 36.6774 13.8193 36.3981 13.8193C36.1546 13.8193 35.9362 13.7746 35.7428 13.6851C35.5495 13.592 35.3901 13.4684 35.2648 13.3145C35.143 13.1569 35.0625 12.9832 35.0231 12.7935L35.0123 12.7559H33.5407L33.546 12.8311C33.5783 13.2607 33.7143 13.6493 33.9542 13.9966C34.1977 14.3403 34.5272 14.6125 34.9425 14.813Z" fill="#A4A7B5"/>
<path fill-rule="evenodd" clip-rule="evenodd" d="M43.9578 15.1138C43.5066 15.1138 43.0877 15.0332 42.701 14.8721C42.3142 14.7109 41.9741 14.4657 41.6805 14.1362C41.3904 13.8068 41.163 13.3914 40.9983 12.8901C40.8372 12.3888 40.7566 11.7962 40.7566 11.1123V11.1016C40.7566 10.2386 40.8855 9.49919 41.1433 8.8833C41.4047 8.26383 41.7753 7.78939 42.2552 7.45996C42.735 7.13053 43.3043 6.96582 43.9632 6.96582C44.4645 6.96582 44.9156 7.05713 45.3167 7.23975C45.7177 7.42236 46.0471 7.67122 46.305 7.98633C46.5664 8.30143 46.7364 8.6613 46.8152 9.06592L46.826 9.11963H45.2415L45.22 9.07129C45.1591 8.90658 45.0696 8.76514 44.9514 8.64697C44.8369 8.52523 44.6972 8.43034 44.5325 8.3623C44.3678 8.29427 44.1798 8.26025 43.9685 8.26025C43.5961 8.26025 43.29 8.37126 43.0501 8.59326C42.8102 8.81527 42.6293 9.11605 42.5076 9.49561C42.3894 9.87516 42.3196 10.2995 42.2981 10.7686C42.2945 10.8223 42.2928 10.876 42.2928 10.9297V10.9458H42.4002C42.4969 10.7453 42.6329 10.5591 42.8084 10.3872C42.9838 10.2153 43.2041 10.0775 43.469 9.97363C43.734 9.86621 44.0437 9.8125 44.3982 9.8125C44.9031 9.8125 45.3453 9.92171 45.7249 10.1401C46.1044 10.3586 46.3999 10.6593 46.6111 11.0425C46.8224 11.4256 46.928 11.8625 46.928 12.353V12.3638C46.928 12.8901 46.8009 13.361 46.5467 13.7764C46.296 14.1917 45.9469 14.5194 45.4993 14.7593C45.0553 14.9956 44.5415 15.1138 43.9578 15.1138ZM42.7224 13.1211C42.5971 12.9027 42.5345 12.6574 42.5345 12.3853V12.3799C42.5345 12.1113 42.5971 11.875 42.7224 11.6709C42.8513 11.4632 43.0232 11.3003 43.2381 11.1821C43.4529 11.064 43.6928 11.0049 43.9578 11.0049C44.2299 11.0049 44.4698 11.0658 44.6775 11.1875C44.8888 11.3092 45.0553 11.4757 45.177 11.687C45.2988 11.8947 45.3596 12.1346 45.3596 12.4067V12.4175C45.3596 12.6825 45.2952 12.9224 45.1663 13.1372C45.041 13.3485 44.8709 13.5168 44.656 13.6421C44.4448 13.7674 44.2084 13.8301 43.9471 13.8301C43.6857 13.8301 43.4475 13.7674 43.2327 13.6421C43.0179 13.5132 42.8478 13.3395 42.7224 13.1211Z" fill="#A4A7B5"/>
<path fill-rule="evenodd" clip-rule="evenodd" d="M54.9898 7.16455C55.4947 7.16455 55.9244 7.24333 56.2789 7.40088C56.6369 7.55485 56.9109 7.77686 57.1006 8.06689C57.294 8.35335 57.3907 8.69531 57.3907 9.09277V9.10352C57.3907 9.37565 57.328 9.62988 57.2027 9.86621C57.081 10.1025 56.9144 10.2995 56.7032 10.457C56.4919 10.6146 56.2538 10.7131 55.9888 10.7524V10.8491C56.3326 10.8742 56.6369 10.9709 56.9019 11.1392C57.1705 11.3075 57.3799 11.5259 57.5303 11.7944C57.6843 12.063 57.7613 12.362 57.7613 12.6914V12.7021C57.7613 13.1533 57.6521 13.5454 57.4337 13.8784C57.2188 14.2078 56.9109 14.4639 56.5098 14.6465C56.1124 14.8255 55.6361 14.915 55.0811 14.915H51.6006V7.16455H54.9898ZM54.6675 13.7065H53.2227V11.4561H54.6299C54.9486 11.4561 55.2172 11.499 55.4356 11.585C55.6576 11.6673 55.8241 11.7909 55.9351 11.9556C56.0497 12.1203 56.107 12.3226 56.107 12.5625V12.5732C56.107 12.9421 55.9835 13.2231 55.7364 13.4165C55.4929 13.6099 55.1366 13.7065 54.6675 13.7065ZM53.2227 10.3872H54.442C54.8788 10.3872 55.2136 10.2995 55.4463 10.124C55.6791 9.94857 55.7955 9.7015 55.7955 9.38281V9.37207C55.7955 9.05697 55.688 8.81169 55.4732 8.63623C55.2619 8.45719 54.9629 8.36768 54.5762 8.36768H53.2227V10.3872Z" fill="#A4A7B5"/>
<path d="M59.3376 14.915V7.16455H60.9597V14.915H59.3376Z" fill="#A4A7B5"/>
<path d="M64.8294 8.50195V14.915H66.4515V8.50195H68.7772V7.16455H62.5037V8.50195H64.8294Z" fill="#A4A7B5"/>
<path d="M27.4414 22.0176C27.123 22.0176 26.8457 21.9678 26.6094 21.8682C26.373 21.7666 26.1865 21.626 26.0498 21.4463C25.9131 21.2666 25.835 21.0586 25.8154 20.8223L25.8125 20.7842H26.46L26.4629 20.8164C26.4766 20.9434 26.5264 21.0537 26.6123 21.1475C26.7002 21.2412 26.8174 21.3145 26.9639 21.3672C27.1123 21.4199 27.2812 21.4463 27.4707 21.4463C27.6484 21.4463 27.8066 21.418 27.9453 21.3613C28.084 21.3047 28.1924 21.2266 28.2705 21.127C28.3506 21.0273 28.3906 20.9131 28.3906 20.7842V20.7812C28.3906 20.6191 28.3291 20.4844 28.2061 20.377C28.083 20.2695 27.8818 20.1855 27.6025 20.125L27.1396 20.0283C26.7119 19.9365 26.4004 19.791 26.2051 19.5918C26.0098 19.3906 25.9121 19.1338 25.9121 18.8213V18.8184C25.9141 18.5742 25.9795 18.3594 26.1084 18.1738C26.2393 17.9883 26.4199 17.8438 26.6504 17.7402C26.8809 17.6367 27.1455 17.585 27.4443 17.585C27.7432 17.585 28.0039 17.6367 28.2266 17.7402C28.4512 17.8418 28.6279 17.9805 28.7568 18.1562C28.8877 18.332 28.9609 18.5303 28.9766 18.751L28.9795 18.7891H28.3379L28.332 18.751C28.3145 18.6357 28.2666 18.5332 28.1885 18.4434C28.1123 18.3535 28.0098 18.2832 27.8809 18.2324C27.7539 18.1797 27.6055 18.1543 27.4355 18.1562C27.2715 18.1562 27.125 18.1816 26.9961 18.2324C26.8672 18.2812 26.7646 18.3525 26.6885 18.4463C26.6143 18.54 26.5771 18.6533 26.5771 18.7861V18.7891C26.5771 18.9453 26.6367 19.0762 26.7559 19.1816C26.877 19.2852 27.0732 19.3662 27.3447 19.4248L27.8076 19.5273C28.1025 19.5898 28.3418 19.6729 28.5254 19.7764C28.709 19.8799 28.8428 20.0078 28.9268 20.1602C29.0127 20.3105 29.0557 20.4902 29.0557 20.6992V20.7021C29.0557 20.9717 28.9893 21.2051 28.8564 21.4023C28.7256 21.5977 28.5391 21.749 28.2969 21.8564C28.0547 21.9639 27.7695 22.0176 27.4414 22.0176Z" fill="#A4A7B5"/>
<path d="M30.5176 21.8682C30.7539 21.9678 31.0312 22.0176 31.3496 22.0176C31.6777 22.0176 31.9629 21.9639 32.2051 21.8564C32.4473 21.749 32.6338 21.5977 32.7646 21.4023C32.8975 21.2051 32.9639 20.9717 32.9639 20.7021V20.6992C32.9639 20.4902 32.9209 20.3105 32.835 20.1602C32.751 20.0078 32.6172 19.8799 32.4336 19.7764C32.25 19.6729 32.0107 19.5898 31.7158 19.5273L31.2529 19.4248C30.9814 19.3662 30.7852 19.2852 30.6641 19.1816C30.5449 19.0762 30.4854 18.9453 30.4854 18.7891V18.7861C30.4854 18.6533 30.5225 18.54 30.5967 18.4463C30.6729 18.3525 30.7754 18.2812 30.9043 18.2324C31.0332 18.1816 31.1797 18.1562 31.3438 18.1562C31.5137 18.1543 31.6621 18.1797 31.7891 18.2324C31.918 18.2832 32.0205 18.3535 32.0967 18.4434C32.1748 18.5332 32.2227 18.6357 32.2402 18.751L32.2461 18.7891H32.8877L32.8848 18.751C32.8691 18.5303 32.7959 18.332 32.665 18.1562C32.5361 17.9805 32.3594 17.8418 32.1348 17.7402C31.9121 17.6367 31.6514 17.585 31.3525 17.585C31.0537 17.585 30.7891 17.6367 30.5586 17.7402C30.3281 17.8438 30.1475 17.9883 30.0166 18.1738C29.8877 18.3594 29.8223 18.5742 29.8203 18.8184V18.8213C29.8203 19.1338 29.918 19.3906 30.1133 19.5918C30.3086 19.791 30.6201 19.9365 31.0479 20.0283L31.5107 20.125C31.79 20.1855 31.9912 20.2695 32.1143 20.377C32.2373 20.4844 32.2988 20.6191 32.2988 20.7812V20.7842C32.2988 20.9131 32.2588 21.0273 32.1787 21.127C32.1006 21.2266 31.9922 21.3047 31.8535 21.3613C31.7148 21.418 31.5566 21.4463 31.3789 21.4463C31.1895 21.4463 31.0205 21.4199 30.8721 21.3672C30.7256 21.3145 30.6084 21.2412 30.5205 21.1475C30.4346 21.0537 30.3848 20.9434 30.3711 20.8164L30.3682 20.7842H29.7207L29.7236 20.8223C29.7432 21.0586 29.8213 21.2666 29.958 21.4463C30.0947 21.626 30.2812 21.7666 30.5176 21.8682Z" fill="#A4A7B5"/>
<path d="M33.8281 21.915V17.6875H34.4844V21.3467H36.4678V21.915H33.8281Z" fill="#A4A7B5"/>
<path d="M38.9316 17.6875V21.915H41.6152V21.3467H39.5879V20.0342H41.5068V19.4893H39.5879V18.2559H41.6152V17.6875H38.9316Z" fill="#A4A7B5"/>
<path d="M42.4912 21.915V18.7334H43.127V19.2139H43.1768C43.2549 19.0439 43.3701 18.9111 43.5225 18.8154C43.6748 18.7197 43.8672 18.6719 44.0996 18.6719C44.457 18.6719 44.7305 18.7744 44.9199 18.9795C45.1094 19.1846 45.2041 19.4766 45.2041 19.8555V21.915H44.5654V20.0049C44.5654 19.7393 44.5098 19.542 44.3984 19.4131C44.2891 19.2822 44.1172 19.2168 43.8828 19.2168C43.7285 19.2168 43.5947 19.251 43.4814 19.3193C43.3682 19.3857 43.2803 19.4814 43.2178 19.6064C43.1572 19.7295 43.127 19.877 43.127 20.0488V21.915H42.4912Z" fill="#A4A7B5"/>
<path d="M46.6279 21.7773C46.8525 21.9102 47.1191 21.9766 47.4277 21.9766C47.6914 21.9766 47.917 21.9326 48.1045 21.8447C48.2939 21.7549 48.4453 21.6318 48.5586 21.4756C48.6719 21.3193 48.7471 21.1377 48.7842 20.9307L48.79 20.9043L48.1807 20.9072L48.1748 20.9219C48.124 21.0938 48.0361 21.2236 47.9111 21.3115C47.7881 21.3994 47.627 21.4434 47.4277 21.4434C47.2539 21.4434 47.1035 21.3984 46.9766 21.3086C46.8496 21.2168 46.752 21.0869 46.6836 20.9189C46.6152 20.751 46.5811 20.5498 46.5811 20.3154V20.3096C46.5811 20.0811 46.6143 19.8838 46.6807 19.7178C46.749 19.5518 46.8467 19.4248 46.9736 19.3369C47.1006 19.2471 47.252 19.2021 47.4277 19.2021C47.6387 19.2021 47.8076 19.2549 47.9346 19.3604C48.0615 19.4639 48.1426 19.5938 48.1777 19.75L48.1807 19.7559H48.793L48.79 19.7412C48.7607 19.5361 48.6885 19.3535 48.5732 19.1934C48.46 19.0312 48.3066 18.9043 48.1133 18.8125C47.9219 18.7188 47.6924 18.6719 47.4248 18.6719C47.1162 18.6719 46.8496 18.7383 46.625 18.8711C46.4023 19.0039 46.2305 19.1924 46.1094 19.4365C45.9902 19.6807 45.9307 19.9717 45.9307 20.3096V20.3154C45.9307 20.6592 45.9912 20.9551 46.1123 21.2031C46.2334 21.4512 46.4053 21.6426 46.6279 21.7773Z" fill="#A4A7B5"/>
<path d="M49.5107 21.915V18.7334H50.1465V19.2139H50.1963C50.2529 19.0439 50.3525 18.9121 50.4951 18.8184C50.6396 18.7246 50.8174 18.6777 51.0283 18.6777C51.0811 18.6777 51.1328 18.6807 51.1836 18.6865C51.2344 18.6924 51.2754 18.6992 51.3066 18.707V19.293C51.25 19.2812 51.1934 19.2725 51.1367 19.2666C51.082 19.2607 51.0244 19.2578 50.9639 19.2578C50.8018 19.2578 50.6592 19.2891 50.5361 19.3516C50.415 19.4141 50.3193 19.502 50.249 19.6152C50.1807 19.7266 50.1465 19.8594 50.1465 20.0137V21.915H49.5107Z" fill="#A4A7B5"/>
<path d="M52.1445 23.0283C52.1895 23.0322 52.2314 23.0342 52.2705 23.0342C52.4873 23.0342 52.6709 23.0039 52.8213 22.9434C52.9717 22.8828 53.1016 22.7793 53.2109 22.6328C53.3203 22.4883 53.4199 22.2891 53.5098 22.0352L54.6934 18.7334H54.0225L53.2286 21.2734H53.1754L52.3789 18.7334H51.6904L52.8447 21.918L52.7979 22.082C52.751 22.2422 52.6816 22.3564 52.5898 22.4248C52.498 22.4951 52.3779 22.5303 52.2295 22.5303C52.1943 22.5303 52.1572 22.5293 52.1182 22.5273C52.0811 22.5254 52.0469 22.5225 52.0156 22.5186V23.0195C52.0566 23.0234 52.0996 23.0264 52.1445 23.0283Z" fill="#A4A7B5"/>
<path fill-rule="evenodd" clip-rule="evenodd" d="M55.3408 22.9756V18.7334H55.9766V19.2344H56.0264C56.0869 19.1172 56.165 19.0176 56.2607 18.9355C56.3584 18.8535 56.4697 18.79 56.5947 18.7451C56.7197 18.7002 56.8564 18.6777 57.0049 18.6777C57.2725 18.6777 57.5049 18.7461 57.7021 18.8828C57.8994 19.0176 58.0518 19.208 58.1592 19.4541C58.2686 19.6982 58.3232 19.9873 58.3232 20.3213V20.3271C58.3232 20.6631 58.2695 20.9541 58.1621 21.2002C58.0547 21.4443 57.9023 21.6338 57.7051 21.7686C57.5078 21.9014 57.2744 21.9678 57.0049 21.9678C56.8584 21.9678 56.7217 21.9453 56.5947 21.9004C56.4678 21.8535 56.3555 21.7891 56.2578 21.707C56.1602 21.625 56.083 21.5264 56.0264 21.4111H55.9766V22.9756H55.3408ZM56.8232 21.4229C57.001 21.4229 57.1533 21.3789 57.2803 21.291C57.4072 21.2031 57.5039 21.0771 57.5703 20.9131C57.6387 20.749 57.6729 20.5537 57.6729 20.3271V20.3213C57.6729 20.0928 57.6387 19.8965 57.5703 19.7324C57.5039 19.5684 57.4072 19.4424 57.2803 19.3545C57.1533 19.2666 57.001 19.2227 56.8232 19.2227C56.6475 19.2227 56.4951 19.2676 56.3662 19.3574C56.2373 19.4453 56.1387 19.5713 56.0703 19.7354C56.002 19.8975 55.9678 20.0928 55.9678 20.3213V20.3271C55.9678 20.5518 56.002 20.7461 56.0703 20.9102C56.1387 21.0742 56.2373 21.2012 56.3662 21.291C56.4951 21.3789 56.6475 21.4229 56.8232 21.4229Z" fill="#A4A7B5"/>
<path d="M59.5303 21.7363C59.6865 21.8691 59.9385 21.9355 60.2861 21.9355C60.3486 21.9355 60.4092 21.9316 60.4678 21.9238C60.5264 21.918 60.5811 21.9111 60.6318 21.9033V21.3936C60.5869 21.3975 60.5469 21.4004 60.5117 21.4023C60.4785 21.4043 60.4385 21.4053 60.3916 21.4053C60.2334 21.4053 60.1201 21.3682 60.0518 21.2939C59.9834 21.2178 59.9492 21.0938 59.9492 20.9219V19.2344H60.6318V18.7334H59.9492V17.9307H59.2988V18.7334H58.8008V19.2344H59.2988V21.0771C59.2988 21.3818 59.376 21.6016 59.5303 21.7363Z" fill="#A4A7B5"/>
<path d="M61.3848 21.915V18.7334H62.0234V21.915H61.3848Z" fill="#A4A7B5"/>
<path d="M61.707 18.165C61.5977 18.165 61.5039 18.126 61.4258 18.0479C61.3477 17.9697 61.3086 17.876 61.3086 17.7666C61.3086 17.6572 61.3477 17.5645 61.4258 17.4883C61.5039 17.4102 61.5977 17.3711 61.707 17.3711C61.8164 17.3711 61.9102 17.4102 61.9883 17.4883C62.0664 17.5645 62.1055 17.6572 62.1055 17.7666C62.1055 17.876 62.0664 17.9697 61.9883 18.0479C61.9102 18.126 61.8164 18.165 61.707 18.165Z" fill="#A4A7B5"/>
<path fill-rule="evenodd" clip-rule="evenodd" d="M63.4883 21.7773C63.7148 21.9102 63.9834 21.9766 64.2939 21.9766C64.6064 21.9766 64.874 21.9102 65.0967 21.7773C65.3213 21.6445 65.4941 21.4551 65.6152 21.209C65.7383 20.9609 65.7998 20.667 65.7998 20.3271V20.3213C65.7998 19.9795 65.7383 19.6855 65.6152 19.4395C65.4941 19.1914 65.3213 19.002 65.0967 18.8711C64.8721 18.7383 64.6045 18.6719 64.2939 18.6719C63.9854 18.6719 63.7178 18.7383 63.4912 18.8711C63.2666 19.0039 63.0928 19.1934 62.9697 19.4395C62.8486 19.6855 62.7881 19.9795 62.7881 20.3213V20.3271C62.7881 20.667 62.8486 20.9609 62.9697 21.209C63.0908 21.4551 63.2637 21.6445 63.4883 21.7773ZM64.7568 21.3115C64.6299 21.3994 64.4756 21.4434 64.2939 21.4434C64.1123 21.4434 63.958 21.3994 63.8311 21.3115C63.7041 21.2217 63.6064 21.0938 63.5381 20.9277C63.4717 20.7617 63.4385 20.5615 63.4385 20.3271V20.3213C63.4385 20.085 63.4717 19.8838 63.5381 19.7178C63.6064 19.5518 63.7041 19.4248 63.8311 19.3369C63.958 19.2471 64.1123 19.2021 64.2939 19.2021C64.4756 19.2021 64.6299 19.2471 64.7568 19.3369C64.8838 19.4248 64.9805 19.5518 65.0469 19.7178C65.1133 19.8838 65.1465 20.085 65.1465 20.3213V20.3271C65.1465 20.5615 65.1133 20.7617 65.0469 20.9277C64.9805 21.0938 64.8838 21.2217 64.7568 21.3115Z" fill="#A4A7B5"/>
<path d="M66.5557 21.915V18.7334H67.1914V19.2139H67.2412C67.3193 19.0439 67.4346 18.9111 67.5869 18.8154C67.7393 18.7197 67.9316 18.6719 68.1641 18.6719C68.5215 18.6719 68.7949 18.7744 68.9844 18.9795C69.1738 19.1846 69.2686 19.4766 69.2686 19.8555V21.915H68.6299V20.0049C68.6299 19.7393 68.5742 19.542 68.4629 19.4131C68.3535 19.2822 68.1816 19.2168 67.9473 19.2168C67.793 19.2168 67.6592 19.251 67.5459 19.3193C67.4326 19.3857 67.3447 19.4814 67.2822 19.6064C67.2217 19.7295 67.1914 19.877 67.1914 20.0488V21.915H66.5557Z" fill="#A4A7B5"/>
<path fill-rule="evenodd" clip-rule="evenodd" d="M6 0C2.68629 0 0 2.68629 0 6V24C0 27.3137 2.68629 30 6 30H74C77.3137 30 80 27.3137 80 24V6C80 2.68629 77.3137 0 74 0H6ZM1 6C1 3.23858 3.23858 1 6 1H74C76.7614 1 79 3.23858 79 6V24C79 26.7614 76.7614 29 74 29H6C3.23858 29 1 26.7614 1 24V6Z" fill="#A4A7B5"/>
</svg>
