<svg width="70" height="30" viewBox="0 0 70 30" fill="none" xmlns="http://www.w3.org/2000/svg">
<path d="M44.7451 16.3591L45.2783 16.5159C45.2428 16.664 45.1895 16.7859 45.1095 16.8817C45.0295 16.9776 44.9406 17.056 44.8251 17.0995C44.7096 17.1518 44.5674 17.1779 44.3896 17.1779C44.1763 17.1779 44.0074 17.1518 43.8652 17.0908C43.7319 17.0298 43.6164 16.9253 43.5186 16.7685C43.4209 16.6204 43.3676 16.4201 43.3676 16.1849C43.3676 15.8713 43.4564 15.6274 43.6253 15.4532C43.7941 15.279 44.043 15.2006 44.3541 15.2006C44.6029 15.2006 44.7895 15.2528 44.9317 15.3486C45.0739 15.4445 45.1806 15.5925 45.2428 15.8016L44.7096 15.9148C44.6918 15.8539 44.674 15.8103 44.6473 15.7842C44.6118 15.7406 44.5762 15.7058 44.5229 15.6797C44.4696 15.6535 44.4163 15.6448 44.3629 15.6448C44.2296 15.6448 44.123 15.6971 44.0519 15.8103C43.9986 15.8887 43.9719 16.0194 43.9719 16.1849C43.9719 16.3939 44.0074 16.542 44.0697 16.6204C44.1319 16.6988 44.2296 16.7424 44.3452 16.7424C44.4607 16.7424 44.5496 16.7075 44.6029 16.6466C44.674 16.5682 44.7184 16.4811 44.7451 16.3591Z" fill="#A4A7B5"/>
<path d="M45.4916 16.1847C45.4916 15.8712 45.5805 15.6273 45.7583 15.453C45.936 15.2788 46.1849 15.1917 46.5048 15.1917C46.8336 15.1917 47.0825 15.2788 47.2602 15.4443C47.438 15.6185 47.5269 15.8537 47.5269 16.1673C47.5269 16.3938 47.4913 16.5767 47.4113 16.7161C47.3313 16.8555 47.2247 16.9687 47.0736 17.0471C46.9314 17.1255 46.7448 17.1691 46.5315 17.1691C46.3093 17.1691 46.1315 17.1342 45.9804 17.0645C45.8382 16.9948 45.7227 16.8903 45.6249 16.7335C45.5272 16.5767 45.4916 16.4112 45.4916 16.1847ZM46.096 16.1847C46.096 16.3764 46.1315 16.5158 46.2026 16.6029C46.2737 16.69 46.3715 16.7335 46.5048 16.7335C46.6381 16.7335 46.7359 16.69 46.807 16.6116C46.8781 16.5245 46.9136 16.3764 46.9136 16.1673C46.9136 15.9844 46.8781 15.8537 46.7981 15.7753C46.727 15.6882 46.6203 15.6534 46.4959 15.6534C46.3715 15.6534 46.2737 15.6969 46.2026 15.784C46.1315 15.8537 46.096 15.9931 46.096 16.1847Z" fill="#A4A7B5"/>
<path d="M48.6289 15.2267L48.9311 16.394L49.2333 15.2267H50.0243V17.1431H49.5266V15.6797L49.1444 17.1431H48.7L48.3179 15.6797V17.1431H47.8202V15.2267H48.6289Z" fill="#A4A7B5"/>
<path d="M50.4153 15.2267H51.4196C51.6417 15.2267 51.8017 15.279 51.9084 15.3835C52.015 15.4881 52.0683 15.6274 52.0683 15.8191C52.0683 16.0107 52.0061 16.1675 51.8906 16.272C51.7751 16.3853 51.5884 16.4375 51.3485 16.4375H51.0196V17.1518H50.4153V15.2267ZM51.0196 16.0456H51.1707C51.2862 16.0456 51.3662 16.0281 51.4196 15.9846C51.464 15.941 51.4907 15.8975 51.4907 15.8365C51.4907 15.7755 51.4729 15.7233 51.4284 15.6797C51.384 15.6362 51.3129 15.6187 51.1974 15.6187H51.0285V16.0456H51.0196Z" fill="#A4A7B5"/>
<path d="M52.3883 15.2267H52.9926V16.6727H53.9347V17.1431H52.3883V15.2267Z" fill="#A4A7B5"/>
<path d="M54.2368 15.2267H54.8412V17.1431H54.2368V15.2267Z" fill="#A4A7B5"/>
<path d="M56.4765 16.8207H55.7922L55.6944 17.1343H55.0812L55.8188 15.218H56.4765L57.2142 17.1343H56.5832L56.4765 16.8207ZM56.3521 16.4113L56.1388 15.7232L55.9255 16.4113H56.3521Z" fill="#A4A7B5"/>
<path d="M57.4008 15.2267H57.9607L58.6983 16.2895V15.2267H59.2671V17.1431H58.6983L57.9695 16.0891V17.1431H57.4008V15.2267Z" fill="#A4A7B5"/>
<path d="M59.5337 15.2267H61.3734V15.6971H60.7602V17.1431H60.1558V15.6971H59.5426V15.2267H59.5337Z" fill="#A4A7B5"/>
<path fill-rule="evenodd" clip-rule="evenodd" d="M39.226 17.6045L37.4752 18.1446C37.8218 17.5436 38.2395 16.8815 38.6572 16.3676L39.226 17.6045ZM33.4492 5L36.8797 12.4913C36.4897 13.013 35.3215 14.5947 34.222 16.1445V11.1715H31.1114V17.829C30.6824 17.5442 30.231 17.3439 29.7961 17.2721V16.9381C29.7961 16.912 29.7783 16.9032 29.7605 16.9207C29.7605 16.9207 29.4228 17.182 27.9475 17.3301C27.5298 17.3736 27.3254 17.3562 27.1743 17.3301C25.0769 16.9816 24.9791 15.4834 24.9791 15.4834C24.9791 15.469 24.9764 15.4493 24.974 15.4317C24.972 15.4172 24.9702 15.4041 24.9702 15.3963V14.8214C24.9702 14.7952 24.9702 14.7517 24.9791 14.7343C24.9791 14.7343 25.1213 13.1228 27.1743 12.9485H27.9475C28.8451 13.0618 29.5739 13.4973 29.5739 13.4973C29.6006 13.506 29.6183 13.4973 29.6183 13.4712V11.4503C29.6183 11.4242 29.6006 11.398 29.5739 11.3806C29.5739 11.3806 29.1651 11.1193 27.9208 11.0496C27.8586 11.0147 26.7655 11.006 26.4722 11.0496C21.9396 11.4067 21.7708 14.621 21.7708 14.7604V15.5444C21.7708 15.6402 21.7708 18.9242 26.4722 19.2116C26.8494 19.2401 27.5168 19.2221 27.7977 19.2145C27.8609 19.2128 27.9045 19.2116 27.9208 19.2116H27.9359C28.0349 19.7506 28.3068 20.3288 28.6855 20.8624L15.2922 25L8.33337 6.39373L33.4492 5ZM34.5686 8.65411C34.5686 9.62972 33.7154 10.4137 32.6667 10.4137C31.618 10.4137 30.7648 9.62101 30.7648 8.65411C30.7648 7.6785 31.618 6.89453 32.6667 6.89453C33.7154 6.89453 34.5686 7.6785 34.5686 8.65411ZM13.1766 19.1593C13.15 19.1593 13.1322 19.1419 13.1322 19.1158V11.2151C13.1322 11.189 13.15 11.1715 13.1766 11.1715H17.1049C18.1003 11.128 21.1398 11.398 21.1398 13.9154C21.1398 17.0949 16.2961 16.7552 16.2961 16.7552C16.2695 16.7552 16.2517 16.7726 16.2517 16.7987V19.1158C16.2517 19.1419 16.2339 19.1593 16.2072 19.1593H13.1766ZM16.1984 12.905V14.9869H17.0338C17.0338 14.9869 17.967 14.9433 18.1091 14.0984C18.1269 14.0809 18.1269 13.7238 18.1091 13.6715C18.0203 12.9485 16.9449 12.905 16.9449 12.905H16.1984Z" fill="#A4A7B5"/>
<path d="M32.7559 22.9877C33.0048 22.9877 33.2003 22.9877 33.5202 22.8483C34.6223 22.2821 38.3461 13.371 42.2743 10.6271C42.301 10.6097 42.3277 10.5835 42.3454 10.5574C42.3721 10.5226 42.3721 10.4877 42.3721 10.4877C42.3721 10.4877 42.3721 10.3048 41.7944 10.3048C38.3017 10.209 34.6667 17.3954 32.7559 20.2351C32.7293 20.2699 32.6048 20.2351 32.6048 20.2351C32.6048 20.2351 31.325 18.7543 30.2141 18.1881C30.1875 18.1793 30.063 18.1358 29.9297 18.1445C29.8408 18.1445 29.3254 18.249 29.0854 18.4929C28.801 18.7891 28.8099 18.9546 28.8099 19.3118C28.8099 19.3379 28.8277 19.4598 28.8632 19.5208C29.1387 19.9912 30.3741 21.6637 31.3961 22.587C31.5472 22.7003 31.7872 22.9877 32.7559 22.9877Z" fill="#A4A7B5"/>
<path d="M43.3053 7.93549H46.2115C46.7892 7.93549 47.2513 8.01388 47.5979 8.16197C47.9534 8.31876 48.2467 8.53653 48.4689 8.81528C48.7 9.10273 48.8688 9.43374 48.9666 9.80831C49.0732 10.1829 49.1265 10.5836 49.1265 11.0104C49.1265 11.6724 49.0466 12.1864 48.8955 12.5522C48.7444 12.9181 48.5311 13.2229 48.2556 13.4756C47.9801 13.7195 47.6868 13.885 47.3757 13.9721C46.9491 14.0853 46.5581 14.1376 46.2115 14.1376H43.3053V7.93549ZM45.2605 9.33793V12.7264H45.7404C46.1493 12.7264 46.4426 12.6829 46.6114 12.5958C46.7803 12.5087 46.9225 12.3519 47.0202 12.1341C47.118 11.9163 47.1713 11.5505 47.1713 11.054C47.1713 10.3919 47.0647 9.94768 46.8425 9.70378C46.6203 9.45988 46.2648 9.33793 45.7493 9.33793H45.2605Z" fill="#A4A7B5"/>
<path d="M49.6686 12.0906L51.535 11.9773C51.5794 12.2735 51.6594 12.5 51.7838 12.6568C51.9883 12.9094 52.2727 13.0313 52.6459 13.0313C52.9214 13.0313 53.1436 12.9703 53.2947 12.8397C53.4458 12.709 53.5258 12.5609 53.5258 12.3954C53.5258 12.2386 53.4547 12.0906 53.3125 11.9599C53.1703 11.8292 52.8326 11.716 52.3082 11.6028C51.4461 11.4111 50.8418 11.1585 50.4685 10.8449C50.0952 10.5313 49.9175 10.1306 49.9175 9.64282C49.9175 9.32052 50.0152 9.02436 50.2019 8.7369C50.3885 8.44944 50.6729 8.23167 51.0551 8.06617C51.4372 7.90066 51.9527 7.82227 52.6104 7.82227C53.4191 7.82227 54.0412 7.97035 54.459 8.26652C54.8855 8.56268 55.1344 9.03307 55.2144 9.67767L53.3658 9.7822C53.3125 9.50345 53.2147 9.3031 53.0547 9.17244C52.8948 9.04178 52.6815 8.9808 52.406 8.9808C52.1749 8.9808 52.006 9.02436 51.8905 9.12018C51.775 9.21599 51.7216 9.32924 51.7216 9.46861C51.7216 9.56443 51.7661 9.66025 51.8638 9.73864C51.9527 9.81704 52.1749 9.89544 52.5215 9.96512C53.3747 10.148 53.9879 10.331 54.3612 10.5139C54.7345 10.6968 55.0011 10.932 55.1699 11.2021C55.3388 11.4721 55.4188 11.7857 55.4188 12.1254C55.4188 12.5261 55.3033 12.892 55.0811 13.223C54.8589 13.5627 54.5389 13.8153 54.139 13.9895C53.7391 14.1637 53.2236 14.2508 52.6104 14.2508C51.535 14.2508 50.7885 14.0505 50.3707 13.6411C49.9619 13.2317 49.7309 12.7177 49.6686 12.0906Z" fill="#A4A7B5"/>
<path d="M55.9165 12.0906L57.7829 11.9773C57.8273 12.2735 57.9073 12.5 58.0317 12.6568C58.2361 12.9094 58.5205 13.0313 58.8938 13.0313C59.1693 13.0313 59.3915 12.9703 59.5426 12.8397C59.6937 12.709 59.7736 12.5609 59.7736 12.3954C59.7736 12.2386 59.7025 12.0906 59.5603 11.9599C59.4181 11.8292 59.0804 11.716 58.5561 11.6028C57.694 11.4111 57.0896 11.1585 56.7164 10.8449C56.352 10.5313 56.1654 10.1306 56.1654 9.64282C56.1654 9.32052 56.2631 9.02436 56.4497 8.7369C56.6364 8.44944 56.9208 8.23167 57.3029 8.06617C57.6851 7.90066 58.2006 7.82227 58.8582 7.82227C59.667 7.82227 60.2891 7.97035 60.7068 8.26652C61.1334 8.56268 61.3823 9.03307 61.4622 9.67767L59.6137 9.7822C59.5603 9.50345 59.4626 9.3031 59.3026 9.17244C59.1426 9.04178 58.9293 8.9808 58.6538 8.9808C58.4228 8.9808 58.2539 9.02436 58.1384 9.12018C58.0228 9.21599 57.9695 9.32924 57.9695 9.46861C57.9695 9.56443 58.0139 9.66025 58.1117 9.73864C58.2006 9.81704 58.4228 9.89544 58.7694 9.96512C59.6226 10.148 60.2358 10.331 60.6091 10.5139C60.9823 10.6968 61.2489 10.932 61.4178 11.2021C61.5867 11.4721 61.6667 11.7857 61.6667 12.1254C61.6667 12.5261 61.5511 12.892 61.3289 13.223C61.1067 13.5627 60.7868 13.8153 60.3869 13.9895C59.9869 14.1637 59.4715 14.2508 58.8582 14.2508C57.7829 14.2508 57.0363 14.0505 56.6186 13.6411C56.2009 13.2317 55.9698 12.7177 55.9165 12.0906Z" fill="#A4A7B5"/>
<path fill-rule="evenodd" clip-rule="evenodd" d="M6 1C3.23858 1 1 3.23858 1 6V24C1 26.7614 3.23858 29 6 29H64C66.7614 29 69 26.7614 69 24V6C69 3.23858 66.7614 1 64 1H6ZM0 6C0 2.68629 2.68629 0 6 0H64C67.3137 0 70 2.68629 70 6V24C70 27.3137 67.3137 30 64 30H6C2.68629 30 0 27.3137 0 24V6Z" fill="#A4A7B5"/>
</svg>
